<?xml version="1.0" encoding="UTF-8" standalone="no"?>
<!-- Created with Inkscape (http://www.inkscape.org/) -->

<svg
   width="20mm"
   height="14.999997mm"
   viewBox="0 0 20 14.999997"
   version="1.1"
   id="svg1"
   inkscape:version="1.3.2 (091e20e, 2023-11-25, custom)"
   sodipodi:docname="Code Slot Spritesheet.svg"
   xml:space="preserve"
   xmlns:inkscape="http://www.inkscape.org/namespaces/inkscape"
   xmlns:sodipodi="http://sodipodi.sourceforge.net/DTD/sodipodi-0.dtd"
   xmlns="http://www.w3.org/2000/svg"
   xmlns:svg="http://www.w3.org/2000/svg"><sodipodi:namedview
     id="namedview1"
     pagecolor="#ffffff"
     bordercolor="#666666"
     borderopacity="1.0"
     inkscape:showpageshadow="2"
     inkscape:pageopacity="0.0"
     inkscape:pagecheckerboard="0"
     inkscape:deskcolor="#d1d1d1"
     inkscape:document-units="mm"
     inkscape:zoom="1.4142136"
     inkscape:cx="287.79245"
     inkscape:cy="450.07345"
     inkscape:window-width="1920"
     inkscape:window-height="1009"
     inkscape:window-x="-8"
     inkscape:window-y="-8"
     inkscape:window-maximized="1"
     inkscape:current-layer="layer1" /><defs
     id="defs1" /><g
     inkscape:label="Layer 1"
     inkscape:groupmode="layer"
     id="layer1"
     transform="translate(-30.000005,-130.00001)"><rect
       style="fill:#ad1c2f;fill-opacity:1;stroke-width:0.00049233;stroke-linecap:round;stroke-linejoin:round;paint-order:fill markers stroke"
       id="rect1-2-8-1"
       width="20"
       height="15"
       x="30.000004"
       y="130"
       ry="4.3014708" /><path
       d="m 43.087911,132.49999 c -1.059339,0 -1.912087,0.85363 -1.912087,1.91209 0,1.05934 0.852748,1.91209 1.912087,1.91209 1.05934,0 1.91209,-0.85275 1.91209,-1.91209 0,-1.05846 -0.85275,-1.91209 -1.91209,-1.91209 z m 0.89011,0.74747 0.32967,0.21934 -1.54066,2.31011 -1.22637,-1.22417 0.28132,-0.28132 0.88351,0.88571 z m -2.984613,2.13385 -2.600001,1.8 h -3.393406 v 0.79121 h 3.393406 l 2.600001,1.8 c 0.112085,-0.24176 0.265934,-0.46154 0.450549,-0.64835 l -2.232966,-1.54726 2.232966,-1.54725 c -0.184615,-0.18681 -0.338464,-0.40659 -0.450549,-0.64835 z m 2.094503,3.44835 c -1.059339,0 -1.912087,0.85275 -1.912087,1.91209 0,1.05934 0.852748,1.91208 1.912087,1.91208 1.05934,0 1.91209,-0.85274 1.91209,-1.91208 0,-1.05934 -0.85275,-1.91209 -1.91209,-1.91209 z m -0.914285,0.71648 0.914285,0.91429 0.91429,-0.91429 0.28132,0.28132 -0.91429,0.91429 0.91429,0.91428 -0.28132,0.28132 -0.91429,-0.91428 -0.914285,0.91428 -0.281319,-0.28132 0.914294,-0.91428 -0.914294,-0.91429 z"
       fill="#ffffff"
       fill-opacity="1"
       id="path1-9-7-8"
       style="fill:#ffffff;fill-opacity:1;stroke-width:0.021978" /></g></svg>
