<?xml version="1.0" encoding="UTF-8" standalone="no"?>
<!-- Created with Inkscape (http://www.inkscape.org/) -->

<svg
   width="20mm"
   height="15.000005mm"
   viewBox="0 0 20 15.000005"
   version="1.1"
   id="svg1"
   inkscape:version="1.3.2 (091e20e, 2023-11-25, custom)"
   sodipodi:docname="Code Slot Spritesheet.svg"
   xml:space="preserve"
   xmlns:inkscape="http://www.inkscape.org/namespaces/inkscape"
   xmlns:sodipodi="http://sodipodi.sourceforge.net/DTD/sodipodi-0.dtd"
   xmlns="http://www.w3.org/2000/svg"
   xmlns:svg="http://www.w3.org/2000/svg"><sodipodi:namedview
     id="namedview1"
     pagecolor="#ffffff"
     bordercolor="#666666"
     borderopacity="1.0"
     inkscape:showpageshadow="2"
     inkscape:pageopacity="0.0"
     inkscape:pagecheckerboard="0"
     inkscape:deskcolor="#d1d1d1"
     inkscape:document-units="mm"
     inkscape:zoom="1.4142136"
     inkscape:cx="287.79245"
     inkscape:cy="450.07345"
     inkscape:window-width="1920"
     inkscape:window-height="1009"
     inkscape:window-x="-8"
     inkscape:window-y="-8"
     inkscape:window-maximized="1"
     inkscape:current-layer="layer1" /><defs
     id="defs1" /><g
     inkscape:label="Layer 1"
     inkscape:groupmode="layer"
     id="layer1"
     transform="translate(-29.999999,-89.999997)"><rect
       style="fill:#8e3b46;fill-opacity:1;stroke-width:0.00049233;stroke-linecap:round;stroke-linejoin:round;paint-order:fill markers stroke"
       id="rect1-2"
       width="20"
       height="15"
       x="30"
       y="90"
       ry="4.3014708" /><path
       d="m 43.087914,92.5 c -1.059343,0 -1.912091,0.853624 -1.912091,1.912086 0,1.059338 0.852748,1.912086 1.912091,1.912086 C 44.147253,96.324172 45,95.471424 45,94.412086 45,93.353624 44.147253,92.5 43.087914,92.5 Z m 0.890109,0.747469 0.329669,0.219342 -1.540658,2.310108 -1.226374,-1.224176 0.28132,-0.281314 0.883513,0.885712 z m -2.984616,2.133847 -2.600001,1.800001 H 35 v 0.79121 h 3.393406 l 2.600001,1.799996 c 0.112085,-0.241754 0.265934,-0.461537 0.450549,-0.64835 l -2.232966,-1.547254 2.232966,-1.547248 c -0.184615,-0.186814 -0.338464,-0.406596 -0.450549,-0.648355 z m 2.094507,3.448351 c -1.059343,0 -1.912091,0.852747 -1.912091,1.912093 0,1.05934 0.852748,1.91208 1.912091,1.91208 1.059339,0 1.912086,-0.85274 1.912086,-1.91208 0,-1.059346 -0.852747,-1.912093 -1.912086,-1.912093 z m -0.914289,0.716482 0.914289,0.914291 0.914284,-0.914291 0.281319,0.281319 -0.914284,0.914292 0.914284,0.91428 -0.281319,0.28132 -0.914284,-0.91428 -0.914289,0.91428 -0.281319,-0.28132 0.914289,-0.91428 -0.914289,-0.914292 z"
       fill="#ffffff"
       fill-opacity="1"
       id="path1-9"
       style="fill:#ffffff;fill-opacity:1;stroke-width:0.021978" /></g></svg>
